<?xml version="1.0" encoding="UTF-8"?>
<svg id="Layer_1" data-name="Layer 1" xmlns="http://www.w3.org/2000/svg" version="1.1" viewBox="0 0 1024 1024">
  <defs>
    <style>
      .cls-1 {
        fill: #000;
        stroke-width: 0px;
      }
    </style>
  </defs>
  <path class="cls-1" d="M534.2,183.9c13.5,2.4,34.9,9.8,55.3,19.4,7.7,3.6,22.1,10.2,32,14.7s30.7,14,46.2,21c38.6,17.6,50.2,24.9,67.4,42.2,15.6,15.8,29.1,38.8,35.5,60.7,4.5,15.5,5.2,27,5.7,92.6.3,33.5.3,61.6,0,62.2-.7,1.9-2.2.1-11.3-13.6l-8-12.1v-103.7l-63.4-.2-63.5-.2-1.9,4.3c-2.9,6.6-10.3,14.2-16.4,16.8-14.5,6.2-33.3-1-40.4-15.7-3.7-7.4-4.6-21-1.9-26.7,3.1-6.4,10.2-13.3,17.3-16.8,5.8-2.8,7.8-3.3,14.2-3.3s8.7.6,12.2,2.2c6.3,2.9,13.3,9.5,15.4,14.7l1.8,4.3,20.1.6c11,.4,38.6.6,61.3.5,36.8-.2,41.2-.4,40.6-1.7-.3-.9-1.9-5.1-3.4-9.3-3.7-9.7-7.4-17-9.6-18.9-1.4-1.1-7.6-1.4-34.8-1.5-36.6-.2-33.1.3-56.5-7.9-9.6-3.4-17.4-7-24.3-11.3-2.6-1.6-2.7-1.6-7,3-5.7,6.1-12.4,9.1-20.8,9.1-12.1.1-24.1-7.6-29.2-18.8-2.9-6.4-3.2-18.7-.5-25.5,2.1-5.7,9.4-12.9,16.7-16.7,4.6-2.3,6.7-2.8,13-2.8,16.1,0,28.2,10.4,32,27.7l1.3,5.6,10.6,4.6c5.8,2.4,14.7,5.7,19.6,7.3,8.7,2.6,9.9,2.7,34.9,3.1l25.9.3-2.4-2.8c-3.8-4.6-13.3-12.4-20-16.4-3.4-2.1-15.7-8.1-27.3-13.5-11.6-5.3-26.3-12.2-32.6-15.2s-14-6.6-17-7.9c-3-1.4-8.3-3.8-11.7-5.4s-6.4-2.9-6.7-2.9-8-3.6-17.2-8.1c-26.1-12.6-40-17.4-62.6-21.3l-3.8-.7v69.9l3.4,1.2c4.7,1.5,12,9.1,15.3,15.9,3.9,7.9,3.9,18.3.1,25.7-4,7.7-7.2,11-14,14.3-11.1,5.6-22.4,3.7-31.6-5.2-5-4.9-7.3-8.8-9.7-17.2-1.9-6.8-1.5-12.4,1.4-19,2.6-5.8,8.5-12.1,12.7-13.5l3.4-1.2v-20.2c0-11.2.3-27.2.7-35.6l.6-15.3-6.4.6c-3.5.4-10.4,1.8-15.4,3.2-4.9,1.4-12,3.3-15.7,4.3l-6.6,1.7-.7,14.4c-1.2,22.6,0,122,1.4,125.6,2.8,6.8,12.2,15.5,20.6,19.1,3.4,1.4,3.6,1.4,4.5-1.1,1.7-4.4,8.8-11.2,14.3-13.5,7.8-3.4,17.7-3.8,25.2-.9,8.6,3.2,17.4,12.2,19.9,20.3,3.1,9.7.6,20-7,29.3-4.3,5.2-9.9,8.6-18,10.8-5,1.4-6.9,1.5-11.6.6-11.2-2.4-22.1-11.7-23.4-20.1-.6-3.6-.9-3.9-5.4-5-2.6-.6-8.2-3.1-12.3-5.6-9.7-5.6-20.2-17.4-24.4-27.2l-2.8-6.7-.3-65.3c-.2-35.8-.5-65.2-.7-65.2s-4.8,2.1-10.3,4.7c-5.4,2.7-11.9,5.6-14.5,6.6l-4.6,1.8.4,64.8c.3,38.1.8,66.6,1.4,69.2,3.1,13.5,10.8,30.3,18.5,40.1,9.2,11.7,24.4,21.5,39.1,25.3,7.7,2,30.8,3.8,40.8,3.3,4.2-.3,7.7-.1,7.7.4,0,4.5-10.8,15.1-17.1,16.9-6,1.6-25.2.5-35.9-2.1-9.5-2.3-23.9-8.8-32.6-14.7-3.3-2.2-9.1-7.4-12.9-11.4-15.4-16.2-23.2-32.6-26.5-55.9-.7-4.8-1.1-28.9-1-66.7,0-33.1-.4-59.4-.8-59.7-.5-.3-6.3,2.1-12.8,5.3-6.6,3.2-12.8,6.1-13.9,6.4-1.9.6-2,1.4-1.8,17.4.2,9.3.5,39.1.7,66.3.3,46,.5,50,2.3,56.5,2.3,7.7,11.7,27.9,17.1,36.5,8.1,12.9,27,28.8,40.3,34.1,12.3,4.8,21.5,6.3,39.6,6.3q20.7.1,10.3,10.2c-7.8,7.6-11.1,9.3-18.5,9.3-26.1.3-51.5-10.5-72.8-30.8-16.6-15.9-28.7-36.4-33.2-56.6-3.8-16.7-4.5-29.5-4.5-86.3s-.2-52.2-.5-52.2c-2.5,0-18.5,9.9-24.6,15.2-3.9,3.4-4.1,8.2-4,67.3.2,46,.4,53,2.1,61.5,3.3,16.9,11.8,35.3,23.8,51.3,17.8,23.6,42.6,38,77.7,45.1,7,1.5,13.2,2.9,13.7,3.2,1.9,1.2-5.4,7.2-10.9,8.9-9,2.8-28,1.7-40-2.3-11.7-4-18-7.5-32.4-18.3-26.1-19.7-42.4-45.8-50-80.4-2-9.1-2.2-13.9-2.9-54-.6-43-1.3-50.5-4.1-50.5s-9,10.2-12.4,17-7.6,19.4-10.6,33.5c-6.3,30.7.7,71.3,17.3,99.7,23.6,40.6,77.6,72.8,118.3,70.5,9.5-.6,22-3.4,27.5-6.2,1.4-.7,6.3-3.1,11-5.3,10.6-4.9,24.7-15.3,41-30.3,47.1-43.5,60.1-53.4,83.2-64.4,15.2-7.2,41.3-13.5,55.7-13.5s47.7,7.8,68.6,18.6c22.4,11.6,43.7,31.5,57.4,53.7,11.3,18.3,22.6,48.2,27.3,72.4,2.1,11.1,2.3,14.2,2.3,50.8s0,39.1-2.7,51.6c-3.6,16.3-10.4,36-15.7,44.9-10.5,17.7-31.6,40.1-48.1,51.2-9.5,6.3-43.4,24.4-54.9,29.4-4.2,1.7-13,5.7-19.6,8.7-86.5,39.5-87.7,39.9-116,42.7-31.7,3.1-46.2-1.2-121.5-36.5-9.1-4.3-23.9-11.1-33-15.2-30.3-13.6-49.9-24.7-64.5-36.3-8.3-6.6-26.2-25.3-30.6-32-13.5-20.5-21.4-44.9-23.9-74.6-1.3-15-1-153.9.3-156.6.8-1.5,1.4-1.2,5.5,2,2.6,2,6.4,5.5,8.4,7.8l3.8,4.1v97.8c.1,0,47.3-.2,47.3-.2,26-.1,54.1-.2,62.4-.2h15.3c0-.1.5-2.9.5-2.9,2.4-11.4,7.1-17.4,18.1-22.8,5-2.5,7.1-2.9,13.9-2.9,10,0,13.9,1.7,22,10,7.6,7.6,10,13.7,9.2,23.1-.9,12.3-9.8,24.8-21.2,30-8.1,3.8-17.9,3.9-24.5.5-6.2-3.3-11.3-7.4-14.1-11.6l-2.4-3.5h-62.7c-34.5,0-62.9.4-63.2.8-.3.5-.2,7.3.1,15.3l.6,14.4h46.6c46,0,46.7,0,53.5,2.3,10.4,3.5,20.3,8.8,25.6,13.8,2.6,2.4,5.1,4.4,5.5,4.4s2.3-1.4,4.3-3.1c9.6-8.5,22.7-10.6,33.7-5.5,7.9,3.6,14,8.7,17.6,14.9,2.8,4.9,3,5.7,2.6,13.7-.5,11.3-3.4,18.8-9.9,25.3-10.7,10.7-23.7,12.7-37.4,5.7-5.8-2.9-7.6-4.5-11-9.6-2.3-3.5-5.2-9.6-6.5-14-2.1-6.9-3.1-8.6-8.4-13.9-6.4-6.5-12.2-9.8-20.7-12.1-5.3-1.3-13.8-1.5-67-1.4h-23.8v2.4c0,3,4.4,16.4,7.1,21.9,7.1,13.9,17.2,26,33.1,39.3,12.5,10.5,18.7,14.4,37.4,23.9,15.4,7.7,23.6,11.6,46.9,21.8,5,2.1,16.4,7.4,25.5,11.7,44.2,20.9,58.6,26.8,71.6,29.1,3.3.5,6.7,1.2,7.7,1.5,1.6.5,1.7-2.7,1.8-56.3,0-31.2.4-61,.7-66.2.6-7.8.5-9.4-.8-9.8-10.8-3.5-17.4-10-20.5-20.4-2.3-7.6-1.7-18.7,1.4-24.8,7.7-14.9,25.5-21.8,38.6-14.9,8,4.1,15,11.1,18.6,18.4,2.9,5.8,3.1,7,2.7,13.6-.8,12-6.7,21.1-16.9,26.2l-4.8,2.3-.4,65.7c-.2,36.1-.2,65.8,0,65.9.7.8,13.9-2.5,27.3-6.9,8-2.6,15-4.8,15.6-5,.6-.1,1.5-3.5,1.8-7.6,1-9.9,1-167.4.1-191.9l-.8-19.5,3.3-3.7c3.8-4.4,5.8-4.6,10-1.1,7,5.9,6.5-2.2,6.7,110.8.1,56,.4,102,.6,102.2.4.5,14.3-5.3,22.7-9.5l6.5-3.3v-92.6c-.1-102.4-.1-102.8-6.6-120.6-8-22-25.4-36.9-54.8-47-11-3.7-12.5-4-28.1-4.7-9.1-.4-18.3-.5-20.5-.3-3.4.5-3.7.4-2-.7,1.1-.6,5.4-4.6,9.7-8.9,8.9-9.1,9.9-9.4,24.8-8,13.5,1.2,23,4.2,42.4,13.4,31.2,14.8,47.2,37.2,52.5,73.1.6,4.2,1.1,42.6,1.2,97.1l.3,90.1,14.1-6.3,14-6.3v-89.8c0-82-.2-90.6-1.8-99.1-5.5-28.9-21-52.1-45.2-67.8-17.8-11.4-31.9-15.9-56.2-17.8-8.4-.7-15.5-1.4-15.8-1.8-1-.9,16.5-16.8,19.3-17.5,6.5-1.6,29.7,4.1,45.2,11.1,22.6,10.2,43.2,27.1,54.8,44.9,5.6,8.7,11.7,23.3,14.8,35.4,3.7,14.7,4.4,32.2,4.4,115.5s.2,76.8.4,76.8,4.1-2.1,8.7-4.6c11.7-6.4,17.8-11.1,18.6-14.2.3-1.4.6-37.4.7-80.1.1-85.5.1-86.2-6.1-107.6-4.4-15.2-11.2-28.4-21.3-41.2-14.7-18.6-39.8-34.9-62.5-40.7-16.7-4.2-27.8-6.6-31-6.6s-3.5-.4-3.5-.9c0-1.5,11-10.2,15-11.9,4.3-1.8,20.4-1.1,29.4,1.3,19,5,41.2,18.8,61.3,37.8,13.8,13.2,27.5,37.8,32.4,58.5,4.4,18.6,5.1,29.4,5.7,99.2.4,36.6,1.1,67.1,1.5,67.8.7,1,1.2,1,2.3.1,2.5-2.1,8.8-13.2,12.7-22.4,6.2-14.8,7.5-18.5,9.9-30,2.2-10.4,2.3-13,2.3-49s-.4-46.5-7.5-70.5c-7.3-24.7-19.8-46.8-35-62-26.1-26.2-58.3-41.6-89-42.5-20.4-.6-32.1,1.7-49.3,9.5-19.1,8.6-36,21.4-74.2,56-27.8,25.1-44,35.6-69.5,45-22,8-34.8,9.5-54,6.5-11.5-1.9-13.6-2.5-27-8.3-16.9-7.2-23.1-10.6-35.7-19.6-37.3-26.5-51.5-46.5-64.5-91.1-4.1-14-4.1-14.1-4.6-34.5-.6-26.9,1.5-41.5,9.3-65.4,3.8-11.6,5.9-15.8,13.8-27.6,10-14.8,12.3-17.3,27.4-30.5,12.7-11.2,21.8-17.2,37.8-24.9,34.9-17,42.4-20.6,42.9-20.6s11-4.8,23.8-10.6c46.4-21.2,62.1-27.3,79.2-30.9,14.9-3.2,38.1-3.4,54.8-.6ZM720.6,389.5c3,2,6.3,8.7,6.4,13,0,4.5-4,11.6-7.9,14.2-5.5,3.7-13.9,2.4-18.7-2.9-7-7.6-3.4-21.5,6.6-25.7,3.4-1.4,10.4-.7,13.6,1.4ZM521.4,540.4c7.7,3.8,15.9,11.6,19.2,18.2,2.4,5,2.6,6.2,2.2,14.2-.9,14.2-6.1,22.4-18.6,29.1-8.2,4.3-15.7,5.1-23.8,2.5-16.1-5-24.8-17.3-24.7-35,.1-8.7,2.6-15.1,8.6-21.2,10.4-10.7,24.9-13.8,37.1-7.8ZM319.8,546.7c4.8,3.5,7.2,8.1,7.2,13.6,0,16-20.5,22.2-29.5,9-5.5-8.2-1.8-20.3,7.5-24.2,3.7-1.6,11.7-.7,14.8,1.6ZM460.7,740.1c2.4,1.2,5.6,3.7,7.1,5.7,2.4,3.1,2.7,4.5,2.7,10.7s-.4,7.7-2.8,11.3c-5,7.6-15.9,10.8-23.5,6.8-7.8-4-11.4-16.5-7.7-26.2,3.6-9.5,14.2-13.1,24.2-8.3Z"/>
  <path class="cls-1" d="M589.5,264.9c-4.8,2.9-6.7,5.7-7.2,10.5-.7,5.5.9,9.8,4.9,13.1,2.4,2,4.1,2.5,8.4,2.5,10.2,0,16.1-5.8,15.2-15.1-1-10.3-12.7-16.4-21.3-11Z"/>
  <path class="cls-1" d="M503.7,287c-4.1,3.5-6.3,9.3-5.3,13.5.4,1.4,2.5,4.6,4.8,7.1,3.5,3.8,4.6,4.4,8,4.4,5,0,9.2-2.9,11.8-8,2.4-4.6,2.5-8.1.6-11.8-2.6-4.9-6.2-7.5-11.4-8-4.4-.4-5.2-.1-8.5,2.8Z"/>
  <path class="cls-1" d="M594.5,343.6c-4.6,2.4-6.3,4.3-8.1,9-1.9,5.1-1.3,8.4,2.3,13.3,4.6,6.1,11.8,7.6,18.3,4,10.5-5.9,10.4-20.8-.1-26.1-4.2-2.2-8.5-2.3-12.4-.2Z"/>
  <path class="cls-1" d="M506.2,368.3c-7.1,2.2-11.7,11.6-9.3,19,.6,1.9,2.5,4.7,4.1,6.2,2.5,2.4,4.1,3,9.4,3.3,5.9.4,6.5.2,9.9-2.7,8.7-7.7,6.9-21.4-3.3-25.5-4.5-1.8-6.1-1.9-10.8-.3Z"/>
  <path class="cls-1" d="M413.2,585.6c-10.7,5.4-12.5,22.6-3,28.4,4.6,2.8,11.5,2.7,15.9-.3,9.2-6.1,10.5-23.1,2.1-27.6-3.8-2-11.5-2.3-15-.5Z"/>
  <path class="cls-1" d="M501.9,643.3c-4.6,3-8.2,10.1-7.4,14.7.9,4.8,2.8,7.5,7.5,10.6,3.4,2.2,4.8,2.6,9,2.2,6-.6,9.3-3.2,12.2-9.6,5.6-12.5-9.8-25.6-21.3-17.9Z"/>
  <path class="cls-1" d="M416,673.1c-8.9,3.6-12.3,13.4-7.9,22.7,5.3,10.8,19.4,11.1,25.6.4,5-8.6,2.7-17.7-5.7-22-4.7-2.4-8-2.7-12-1.1Z"/>
  <path class="cls-1" d="M504.1,554c-7.6,3.2-12.1,9.9-12.1,18s7.3,17,15.6,17,19-8.4,18.2-20.2c-.4-6-2.1-8.7-7.8-12.8-3.1-2.2-10.7-3.3-13.9-2Z"/>
</svg>