<?xml version="1.0" encoding="UTF-8"?>
<svg id="Layer_1" data-name="Layer 1" xmlns="http://www.w3.org/2000/svg" viewBox="0 0 918 99">
  <defs>
    <style>
      .cls-1 {
        fill: #fa0;
        stroke-width: 0px;
      }
    </style>
  </defs>
  <path class="cls-1" d="M.06,49.34C.06,15.71,21.28,4.55,54.63,4.55h95.45v40.75H62.58v11.3h87.49v37.26H60.77C23.09,93.86.06,83.67.06,49.34Z"/>
  <path class="cls-1" d="M165.42,4.55h50.24v52.89h56.52v36.42h-106.75V4.55Z"/>
  <path class="cls-1" d="M279.57,48.78c0-31.4,24.84-46.61,76.33-46.61s76.05,15.21,76.05,46.61-24.7,47.45-76.05,47.45-76.33-15.49-76.33-47.45ZM376.69,56.74v-15.77h-42.14v15.77h42.14Z"/>
  <path class="cls-1" d="M443.12,52.34V3.5h53.03v50.24h31.96V3.5h53.03v48.84c0,30.14-20.09,42.56-68.8,42.56s-69.21-11.58-69.21-42.56Z"/>
  <path class="cls-1" d="M589.66,4.55h164.32c73.93,0,105.02,13.26,105.02,44.65s-32.13,44.65-105.02,44.65h-164.32V4.55ZM755.03,59.11v-19.95h-70.8v19.95h70.8Z"/>
  <path class="cls-1" d="M867.49,4.55h50.51v89.31h-50.51V4.55Z"/>
</svg>